<svg height="512pt" viewBox="0 0 512.00032 512" width="512pt" xmlns="http://www.w3.org/2000/svg"><path d="m321.671875 511.996094h-131.34375c-8.285156 0-15-6.714844-15-15v-95.835938l-87.707031 52.445313c-8.597656 4.03125-15.558594 2.117187-20.890625-5.738281l-64.921875-120.066407c-3.820313-7.066406-1.398438-15.886719 5.496094-20.007812l86.613281-51.792969-86.613281-51.796875c-6.894532-4.121094-9.316407-12.941406-5.496094-20.007813l64.921875-120.066406c5.332031-7.855468 12.292969-9.769531 20.890625-5.738281l87.707031 52.445313v-95.835938c0-8.285156 6.714844-15 15-15h131.34375c8.285156 0 15 6.714844 15 15v95.835938l87.703125-52.445313c8.597656-4.03125 15.5625-2.117187 20.894531 5.738281l64.921875 120.066406c3.820313 7.066407 1.398438 15.886719-5.496094 20.007813l-86.613281 51.796875 86.613281 51.792969c6.894532 4.121093 9.316407 12.941406 5.496094 20.007812l-64.921875 120.066407c-5.332031 7.855468-12.296875 9.769531-20.894531 5.738281l-87.703125-52.445313v95.835938c0 8.285156-6.714844 15-15 15zm0 0" fill="#99ecea"/><path d="m504.695312 307.792969-86.613281-51.792969 86.613281-51.796875c6.894532-4.121094 9.316407-12.941406 5.496094-20.007813l-64.921875-120.066406c-5.332031-7.855468-12.296875-9.769531-20.894531-5.738281l-87.703125 52.445313v-95.835938c0-8.285156-6.71875-15-15-15h-65.671875v511.996094h65.671875c8.28125 0 15-6.714844 15-15v-95.835938l87.703125 52.445313c8.597656 4.03125 15.5625 2.117187 20.894531-5.738281l64.921875-120.066407c3.820313-7.066406 1.398438-15.886719-5.496094-20.007812zm0 0" fill="#6adbd8"/></svg>